:SAMPLES-PER-SECOND 24
:FULLY-SPECIFIED
:DEGREES
113
root  -10.556 42.1525 36.5212 -75.6723 44.0533 -79.4403
RightUpLeg  -65.6845 -24.7294 -35.4409
RightLeg  88.2563 0.369977 -9.82568
RightFoot  -21.2826 -0.248755 -1.19454
RightToes  -2.08645e-008 3.77894e-005 6.81332e-007
Spine  21.3181 -3.08137 13.7944
Spine1  -8.22794 -3.67583 25.3615
HEad  -22.6531 -47.5067 19.1895
LeftShoulder1  4.45607 -11.3386 -23.7897
LeftArm  25.9683 -10.4935 -36.3848
LeftForeArm  170.86 -63.3018 -160.484
LeftHand  -0.58194 -2.21162 9.08745
RightShoulder  2.67896 5.58449 23.3128
RightArm  41.1537 2.28953 26.5544
RightForeArm  166.999 71.614 150.538
RightHand  -0.247232 7.95037 -2.52667
LeftUpLeg  -4.74232 17.8417 33.8817
LeftLeg  6.88516 16.83 4.39866
LeftFoot  -1.9257 0.231448 -2.70365
LeftToes  1.24767e-006 1.47042e-008 1.32732e-009
114
root  -10.1848 41.7949 36.1569 -65.2844 40.8073 -69.5779
RightUpLeg  -66.295 -28.454 -36.8481
RightLeg  78.6278 -2.46577 -16.1278
RightFoot  -20.3047 -0.322215 -2.35852
RightToes  -2.08645e-008 3.77894e-005 6.81332e-007
Spine  20.7903 -2.26352 16.2652
Spine1  -7.44376 -2.13841 22.289
HEad  -19.2701 -43.8411 17.2693
LeftShoulder1  4.3749 -10.9513 -24.0518
LeftArm  25.1323 -7.6329 -31.2581
LeftForeArm  172.501 -59.3863 -163.441
LeftHand  -0.490691 -2.18085 7.72537
RightShoulder  2.70967 5.53548 23.842
RightArm  38.5209 -0.161203 23.8694
RightForeArm  171.745 68.5001 155.515
RightHand  -0.322902 7.55193 -3.25588
LeftUpLeg  -3.91976 0.836195 36.3881
LeftLeg  16.8912 8.47565 3.20218
LeftFoot  -5.66735 0.265153 -4.66479
LeftToes  1.24767e-006 1.47042e-008 1.32732e-009
115
root  -9.66453 41.2966 35.8273 -56.2588 36.6731 -60.9912
RightUpLeg  -64.0147 -29.7766 -36.2581
RightLeg  61.0736 -9.81424 -19.0994
RightFoot  -15.6571 -0.265285 -4.30186
RightToes  -2.08645e-008 3.77894e-005 6.81332e-007
Spine  20.3933 -1.57581 17.715
Spine1  -6.43982 -0.961518 20.0263
HEad  -17.1743 -38.6 14.4442
LeftShoulder1  4.56677 -10.7408 -25.9287
LeftArm  22.6452 -5.27238 -27.028
LeftForeArm  174.113 -58.2083 -164.299
LeftHand  -0.431975 -2.17503 6.83071
RightShoulder  2.79815 5.50773 24.9739
RightArm  34.1375 -1.2337 21.0128
RightForeArm  173.472 66.5799 157.828
RightHand  -0.302791 8.13982 -2.97452
LeftUpLeg  -2.25802 -2.76451 35.5047
LeftLeg  21.3403 6.46154 3.12017
LeftFoot  -8.28235 0.127391 -2.92699
LeftToes  1.24767e-006 1.47042e-008 1.32732e-009
116
root  -9.0933 40.9376 35.6462 -50.1206 32.8048 -55.3168
RightUpLeg  -54.7007 -25.3735 -39.6571
RightLeg  35.9762 -19.6058 -14.2656
RightFoot  -9.72649 0.00431995 -5.19002
RightToes  -2.08645e-008 3.77894e-005 6.81332e-007
Spine  19.7652 -1.50567 16.4711
Spine1  -5.11771 -1.16461 20.9947
HEad  -16.218 -31.4193 10.5083
LeftShoulder1  4.91598 -10.871 -28.1439
LeftArm  19.3494 -1.19061 -25.892
LeftForeArm  174.728 -59.9712 -163.267
LeftHand  -0.422223 -2.27628 6.59949
RightShoulder  2.94832 5.61989 26.2966
RightArm  28.6527 -1.88447 18.8279
RightForeArm  172.202 66.2229 158.04
RightHand  -0.217129 8.80865 -2.15664
LeftUpLeg  0.677087 1.34519 34.0609
LeftLeg  19.7386 11.9407 4.98866
LeftFoot  -9.43773 0.0239902 2.16119
LeftToes  1.24767e-006 1.47042e-008 1.32732e-009
117
root  -8.67282 40.6581 35.7443 -47.7396 31.0235 -53.17
RightUpLeg  -42.0334 -18.5852 -42.8647
RightLeg  12.0807 -21.4836 -9.37263
RightFoot  -6.29266 0.126854 -3.91701
RightToes  -2.08645e-008 3.77894e-005 6.81332e-007
Spine  18.3771 -2.3114 11.6435
Spine1  -2.2964 -3.77333 25.8023
HEad  -16.7609 -23.8436 8.2388
LeftShoulder1  5.35749 -11.3558 -30.0388
LeftArm  15.5181 2.09702 -27.1119
LeftForeArm  172.754 -63.3579 -160.649
LeftHand  -0.461179 -2.33927 7.13503
RightShoulder  3.23783 5.91024 28.4492
RightArm  23.4905 -4.02286 17.5905
RightForeArm  169.857 67.4428 156.493
RightHand  -0.260122 8.54132 -2.5484
LeftUpLeg  3.23229 2.48149 32.8919
LeftLeg  16.9244 16.825 5.99046
LeftFoot  -11.1389 0.0576015 6.09625
LeftToes  1.24767e-006 1.47042e-008 1.32732e-009
118
root  -8.46129 40.4182 35.75 -46.8064 30.545 -52.7983
RightUpLeg  -34.824 -17.721 -37.9082
RightLeg  3.50302 -9.72547 -10.7572
RightFoot  -6.99447 0.0154567 -1.65488
RightToes  -2.08645e-008 3.77894e-005 6.81332e-007
Spine  16.9066 -2.71786 6.00261
Spine1  1.12633 -7.06627 31.6698
HEad  -18.2763 -19.0392 8.89773
LeftShoulder1  5.95594 -12.0414 -32.315
LeftArm  13.1126 1.3187 -28.8608
LeftForeArm  168.704 -67.2863 -156.542
LeftHand  -0.521489 -2.32494 8.05454
RightShoulder  3.67206 6.27392 31.6675
RightArm  16.6882 -10.5162 16.467
RightForeArm  169.034 68.8905 154.705
RightHand  -0.22989 8.36553 -2.31709
LeftUpLeg  2.79422 -0.53386 31.7042
LeftLeg  18.4163 20.3091 7.65306
LeftFoot  -12.4105 0.138641 6.84929
LeftToes  1.24767e-006 1.47042e-008 1.32732e-009
119
root  -8.27751 40.2485 35.6108 -44.0232 29.3505 -51.0896
RightUpLeg  -30.6681 -13.005 -34.5177
RightLeg  4.75264 -5.42054 -9.56582
RightFoot  -7.92169 -0.0370762 -0.564538
RightToes  -2.08645e-008 3.77894e-005 6.81332e-007
Spine  15.5028 -2.69569 3.56125
Spine1  2.94425 -8.39073 32.6402
HEad  -19.3388 -16.7025 11.1627
LeftShoulder1  6.32525 -12.3687 -33.8475
LeftArm  13.8771 -0.675198 -31.0109
LeftForeArm  165.783 -70.37 -152.317
LeftHand  -0.532623 -2.72181 7.85236
RightShoulder  4.20156 6.75502 35.0592
RightArm  7.37249 -21.2796 16.4768
RightForeArm  170.125 69.3109 154.311
RightHand  0.0210993 8.55429 -0.214314
LeftUpLeg  0.892225 1.24277 30.9104
LeftLeg  21.3222 21.3988 9.22316
LeftFoot  -12.6601 0.156434 6.9716
LeftToes  1.24767e-006 1.47042e-008 1.32732e-009
120
root  -8.03458 40.2472 35.5938 -39.175 27.562 -46.9369
RightUpLeg  -27.9286 -13.0053 -27.1646
RightLeg  3.6883 -4.32568 -8.10365
RightFoot  -8.89429 -0.0748088 0.747214
RightToes  -2.08645e-008 3.77894e-005 6.81332e-007
Spine  13.0047 -2.63573 1.43457
Spine1  4.22669 -8.56128 29.8787
HEad  -19.5101 -14.1093 12.4778
LeftShoulder1  6.33827 -12.2916 -34.1203
LeftArm  15.9641 -0.109933 -33.627
LeftForeArm  165.228 -71.8755 -149.876
LeftHand  -0.484297 -3.5715 6.53603
RightShoulder  4.4065 6.95447 36.215
RightArm  -1.29214 -31.6993 19.4634
RightForeArm  169.209 69.6058 153.806
RightHand  0.0307888 8.70017 -0.129518
LeftUpLeg  0.440251 7.64005 29.5326
LeftLeg  21.6219 19.7919 8.72648
LeftFoot  -12.4737 0.140443 6.59118
LeftToes  1.24767e-006 1.47042e-008 1.32732e-009
121
root  -7.71513 40.355 35.4968 -33.3889 25.9526 -41.1191
RightUpLeg  -24.6188 -11.9218 -21.7085
RightLeg  3.03373 -9.16859 -6.71226
RightFoot  -10.524 -0.0780221 0.845428
RightToes  -2.08645e-008 3.77894e-005 6.81332e-007
Spine  9.97322 -2.66884 -2.2314
Spine1  5.50775 -8.98997 27.6671
HEad  -19.1473 -10.5061 11.5727
LeftShoulder1  6.47655 -12.3687 -34.7883
LeftArm  17.3455 3.20419 -34.7557
LeftForeArm  165.197 -72.153 -149.387
LeftHand  -0.457025 -4.01104 5.91459
RightShoulder  4.28572 6.82977 35.5646
RightArm  -6.28466 -38.6849 22.8504
RightForeArm  165.127 70.4788 152.039
RightHand  -0.139449 7.58222 -1.62622
LeftUpLeg  0.840701 13.6031 25.8559
LeftLeg  20.1341 18.9653 7.88931
LeftFoot  -11.383 0.0708918 6.32957
LeftToes  1.24767e-006 1.47042e-008 1.32732e-009
122
root  -7.33792 40.4964 35.2881 -27.304 23.4076 -34.5023
RightUpLeg  -22.1647 -6.76532 -18.5374
RightLeg  7.29265 -14.8313 -5.6669
RightFoot  -11.0534 -0.0755912 0.293783
RightToes  -2.08645e-008 3.77894e-005 6.81332e-007
Spine  6.57206 -2.8453 -4.24477
Spine1  6.71676 -8.89429 24.1555
HEad  -18.8957 -6.972 9.03331
LeftShoulder1  6.82597 -12.6781 -36.138
LeftArm  18.156 8.0704 -33.8176
LeftForeArm  165.58 -71.8834 -149.906
LeftHand  -0.47137 -3.87253 6.17539
RightShoulder  4.1575 6.68618 34.9026
RightArm  -6.82756 -42.6171 23.9071
RightForeArm  162.766 70.8538 151.151
RightHand  -0.299164 6.94876 -3.16258
LeftUpLeg  1.18352 16.7992 20.6156
LeftLeg  18.1737 21.4149 7.56611
LeftFoot  -8.99413 -0.0785032 6.46719
LeftToes  1.24767e-006 1.47042e-008 1.32732e-009
